<mxfile host="app.diagrams.net" agent="Mozilla/5.0 (Windows NT 10.0; Win64; x64) AppleWebKit/537.36 (KHTML, like Gecko) Chrome/136.0.0.0 Safari/537.36 Edg/136.0.0.0" version="27.0.8">
  <diagram name="Page-1" id="PUNVGecRI-zyY5rwxk-x">
    <mxGraphModel dx="441" dy="1429" grid="1" gridSize="10" guides="1" tooltips="1" connect="1" arrows="1" fold="1" page="1" pageScale="1" pageWidth="827" pageHeight="1169" math="0" shadow="0">
      <root>
        <mxCell id="0" />
        <mxCell id="1" parent="0" />
        <mxCell id="ooIeGGXjPzkn9RstT3Jz-4" style="edgeStyle=orthogonalEdgeStyle;rounded=0;orthogonalLoop=1;jettySize=auto;html=1;exitX=0.5;exitY=1;exitDx=0;exitDy=0;" parent="1" edge="1">
          <mxGeometry relative="1" as="geometry">
            <mxPoint x="390" y="200" as="sourcePoint" />
            <mxPoint x="390" y="200" as="targetPoint" />
          </mxGeometry>
        </mxCell>
        <mxCell id="bG7bpE5-H6T2HicWo24r-3" style="edgeStyle=orthogonalEdgeStyle;rounded=0;orthogonalLoop=1;jettySize=auto;html=1;exitX=0.5;exitY=1;exitDx=0;exitDy=0;entryX=0.5;entryY=0;entryDx=0;entryDy=0;" parent="1" source="bG7bpE5-H6T2HicWo24r-1" target="bG7bpE5-H6T2HicWo24r-2" edge="1">
          <mxGeometry relative="1" as="geometry" />
        </mxCell>
        <mxCell id="bG7bpE5-H6T2HicWo24r-1" value="Start Constructor" style="rounded=1;whiteSpace=wrap;html=1;" parent="1" vertex="1">
          <mxGeometry x="140" y="90" width="120" height="60" as="geometry" />
        </mxCell>
        <mxCell id="bG7bpE5-H6T2HicWo24r-35" style="edgeStyle=orthogonalEdgeStyle;rounded=0;orthogonalLoop=1;jettySize=auto;html=1;exitX=0.5;exitY=1;exitDx=0;exitDy=0;" parent="1" source="bG7bpE5-H6T2HicWo24r-2" target="bG7bpE5-H6T2HicWo24r-13" edge="1">
          <mxGeometry relative="1" as="geometry" />
        </mxCell>
        <mxCell id="bG7bpE5-H6T2HicWo24r-2" value="int i = 0" style="rounded=0;whiteSpace=wrap;html=1;" parent="1" vertex="1">
          <mxGeometry x="140" y="300" width="120" height="50" as="geometry" />
        </mxCell>
        <mxCell id="bG7bpE5-H6T2HicWo24r-7" style="edgeStyle=orthogonalEdgeStyle;rounded=0;orthogonalLoop=1;jettySize=auto;html=1;exitX=0.5;exitY=1;exitDx=0;exitDy=0;entryX=0.5;entryY=0;entryDx=0;entryDy=0;" parent="1" source="bG7bpE5-H6T2HicWo24r-4" target="bG7bpE5-H6T2HicWo24r-6" edge="1">
          <mxGeometry relative="1" as="geometry" />
        </mxCell>
        <mxCell id="bG7bpE5-H6T2HicWo24r-4" value="missTurn = false&lt;div&gt;passedStart = false&lt;/div&gt;" style="rounded=0;whiteSpace=wrap;html=1;" parent="1" vertex="1">
          <mxGeometry x="140" y="650" width="120" height="60" as="geometry" />
        </mxCell>
        <mxCell id="bG7bpE5-H6T2HicWo24r-6" value="Stop" style="rounded=1;whiteSpace=wrap;html=1;" parent="1" vertex="1">
          <mxGeometry x="140" y="820" width="120" height="60" as="geometry" />
        </mxCell>
        <mxCell id="bG7bpE5-H6T2HicWo24r-17" style="edgeStyle=orthogonalEdgeStyle;rounded=0;orthogonalLoop=1;jettySize=auto;html=1;exitX=0;exitY=0.5;exitDx=0;exitDy=0;entryX=0;entryY=0.5;entryDx=0;entryDy=0;" parent="1" source="bG7bpE5-H6T2HicWo24r-13" target="bG7bpE5-H6T2HicWo24r-4" edge="1">
          <mxGeometry relative="1" as="geometry">
            <Array as="points">
              <mxPoint x="50" y="435" />
              <mxPoint x="50" y="680" />
            </Array>
          </mxGeometry>
        </mxCell>
        <mxCell id="bG7bpE5-H6T2HicWo24r-20" style="edgeStyle=orthogonalEdgeStyle;rounded=0;orthogonalLoop=1;jettySize=auto;html=1;exitX=1;exitY=0.5;exitDx=0;exitDy=0;entryX=0.5;entryY=0;entryDx=0;entryDy=0;" parent="1" source="bG7bpE5-H6T2HicWo24r-13" target="bG7bpE5-H6T2HicWo24r-19" edge="1">
          <mxGeometry relative="1" as="geometry" />
        </mxCell>
        <mxCell id="bG7bpE5-H6T2HicWo24r-13" value="If i == 26" style="rhombus;whiteSpace=wrap;html=1;" parent="1" vertex="1">
          <mxGeometry x="147.5" y="390" width="105" height="90" as="geometry" />
        </mxCell>
        <mxCell id="bG7bpE5-H6T2HicWo24r-18" value="Yes" style="text;html=1;align=center;verticalAlign=middle;resizable=0;points=[];autosize=1;strokeColor=none;fillColor=none;" parent="1" vertex="1">
          <mxGeometry x="50" y="555" width="40" height="30" as="geometry" />
        </mxCell>
        <mxCell id="bG7bpE5-H6T2HicWo24r-22" style="edgeStyle=orthogonalEdgeStyle;rounded=0;orthogonalLoop=1;jettySize=auto;html=1;exitX=1;exitY=0.5;exitDx=0;exitDy=0;entryX=0;entryY=0.5;entryDx=0;entryDy=0;" parent="1" source="bG7bpE5-H6T2HicWo24r-19" target="bG7bpE5-H6T2HicWo24r-21" edge="1">
          <mxGeometry relative="1" as="geometry" />
        </mxCell>
        <mxCell id="bG7bpE5-H6T2HicWo24r-26" style="edgeStyle=orthogonalEdgeStyle;rounded=0;orthogonalLoop=1;jettySize=auto;html=1;exitX=0.5;exitY=1;exitDx=0;exitDy=0;entryX=0.5;entryY=0;entryDx=0;entryDy=0;" parent="1" source="bG7bpE5-H6T2HicWo24r-19" target="bG7bpE5-H6T2HicWo24r-23" edge="1">
          <mxGeometry relative="1" as="geometry" />
        </mxCell>
        <mxCell id="bG7bpE5-H6T2HicWo24r-19" value="If i == 0" style="rhombus;whiteSpace=wrap;html=1;" parent="1" vertex="1">
          <mxGeometry x="310" y="465.92" width="80" height="80" as="geometry" />
        </mxCell>
        <mxCell id="bG7bpE5-H6T2HicWo24r-34" style="edgeStyle=orthogonalEdgeStyle;rounded=0;orthogonalLoop=1;jettySize=auto;html=1;exitX=0.5;exitY=0;exitDx=0;exitDy=0;endArrow=none;startFill=0;" parent="1" source="bG7bpE5-H6T2HicWo24r-21" edge="1">
          <mxGeometry relative="1" as="geometry">
            <mxPoint x="650" y="420" as="targetPoint" />
          </mxGeometry>
        </mxCell>
        <mxCell id="bG7bpE5-H6T2HicWo24r-21" value="board[i,2] = &quot;Start&quot;&lt;div&gt;board[i,1] = &quot;Special&quot;&lt;/div&gt;" style="rounded=0;whiteSpace=wrap;html=1;" parent="1" vertex="1">
          <mxGeometry x="490" y="475.92" width="120" height="60" as="geometry" />
        </mxCell>
        <mxCell id="bG7bpE5-H6T2HicWo24r-25" style="edgeStyle=orthogonalEdgeStyle;rounded=0;orthogonalLoop=1;jettySize=auto;html=1;exitX=1;exitY=0.5;exitDx=0;exitDy=0;entryX=0;entryY=0.5;entryDx=0;entryDy=0;" parent="1" source="bG7bpE5-H6T2HicWo24r-23" target="bG7bpE5-H6T2HicWo24r-24" edge="1">
          <mxGeometry relative="1" as="geometry" />
        </mxCell>
        <mxCell id="bG7bpE5-H6T2HicWo24r-23" value="If i == 13" style="rhombus;whiteSpace=wrap;html=1;" parent="1" vertex="1">
          <mxGeometry x="310" y="585" width="80" height="80" as="geometry" />
        </mxCell>
        <mxCell id="bG7bpE5-H6T2HicWo24r-33" style="edgeStyle=orthogonalEdgeStyle;rounded=0;orthogonalLoop=1;jettySize=auto;html=1;exitX=0.5;exitY=0;exitDx=0;exitDy=0;entryX=0.5;entryY=0;entryDx=0;entryDy=0;endArrow=none;startFill=0;" parent="1" source="bG7bpE5-H6T2HicWo24r-24" target="bG7bpE5-H6T2HicWo24r-13" edge="1">
          <mxGeometry relative="1" as="geometry">
            <Array as="points">
              <mxPoint x="650" y="595" />
              <mxPoint x="650" y="370" />
              <mxPoint x="200" y="370" />
            </Array>
          </mxGeometry>
        </mxCell>
        <mxCell id="bG7bpE5-H6T2HicWo24r-24" value="board[i,2] = &quot;Miss a turn&quot;&lt;div&gt;board[i,1] = &quot;Special&quot;&lt;/div&gt;" style="rounded=0;whiteSpace=wrap;html=1;" parent="1" vertex="1">
          <mxGeometry x="490" y="595" width="120" height="60" as="geometry" />
        </mxCell>
        <mxCell id="bG7bpE5-H6T2HicWo24r-36" style="edgeStyle=orthogonalEdgeStyle;rounded=0;orthogonalLoop=1;jettySize=auto;html=1;exitX=1;exitY=0.5;exitDx=0;exitDy=0;endArrow=none;startFill=0;" parent="1" source="bG7bpE5-H6T2HicWo24r-27" edge="1">
          <mxGeometry relative="1" as="geometry">
            <mxPoint x="650" y="590" as="targetPoint" />
          </mxGeometry>
        </mxCell>
        <mxCell id="bG7bpE5-H6T2HicWo24r-27" value="board[i,1] = &quot;Animal&lt;span style=&quot;background-color: initial;&quot;&gt;&quot;&lt;/span&gt;&lt;div&gt;board[i,2] = animal.getName&lt;/div&gt;" style="rounded=0;whiteSpace=wrap;html=1;" parent="1" vertex="1">
          <mxGeometry x="300" y="720" width="120" height="60" as="geometry" />
        </mxCell>
        <mxCell id="bG7bpE5-H6T2HicWo24r-28" style="edgeStyle=orthogonalEdgeStyle;rounded=0;orthogonalLoop=1;jettySize=auto;html=1;exitX=0.5;exitY=1;exitDx=0;exitDy=0;entryX=0.417;entryY=0;entryDx=0;entryDy=0;entryPerimeter=0;" parent="1" source="bG7bpE5-H6T2HicWo24r-23" target="bG7bpE5-H6T2HicWo24r-27" edge="1">
          <mxGeometry relative="1" as="geometry" />
        </mxCell>
        <mxCell id="bG7bpE5-H6T2HicWo24r-29" value="Yes" style="text;html=1;align=center;verticalAlign=middle;resizable=0;points=[];autosize=1;strokeColor=none;fillColor=none;" parent="1" vertex="1">
          <mxGeometry x="400" y="468" width="40" height="30" as="geometry" />
        </mxCell>
        <mxCell id="bG7bpE5-H6T2HicWo24r-30" value="Yes" style="text;html=1;align=center;verticalAlign=middle;resizable=0;points=[];autosize=1;strokeColor=none;fillColor=none;" parent="1" vertex="1">
          <mxGeometry x="410" y="578" width="40" height="30" as="geometry" />
        </mxCell>
        <mxCell id="bG7bpE5-H6T2HicWo24r-31" value="No" style="text;html=1;align=center;verticalAlign=middle;resizable=0;points=[];autosize=1;strokeColor=none;fillColor=none;" parent="1" vertex="1">
          <mxGeometry x="280" y="538" width="40" height="30" as="geometry" />
        </mxCell>
        <mxCell id="bG7bpE5-H6T2HicWo24r-32" value="No" style="text;html=1;align=center;verticalAlign=middle;resizable=0;points=[];autosize=1;strokeColor=none;fillColor=none;" parent="1" vertex="1">
          <mxGeometry x="300" y="668" width="40" height="30" as="geometry" />
        </mxCell>
        <mxCell id="0Hzz-Tntq4hrnbIj0DlP-1" value="No" style="text;html=1;align=center;verticalAlign=middle;resizable=0;points=[];autosize=1;strokeColor=none;fillColor=none;" parent="1" vertex="1">
          <mxGeometry x="270" y="400" width="40" height="30" as="geometry" />
        </mxCell>
        <mxCell id="0Hzz-Tntq4hrnbIj0DlP-5" value="i = i + 1" style="rounded=0;whiteSpace=wrap;html=1;" parent="1" vertex="1">
          <mxGeometry x="400" y="340" width="120" height="60" as="geometry" />
        </mxCell>
        <mxCell id="NZPgqeMzNN7oQQNKcr5g-4" style="edgeStyle=orthogonalEdgeStyle;rounded=0;orthogonalLoop=1;jettySize=auto;html=1;exitX=0.5;exitY=1;exitDx=0;exitDy=0;entryX=0.5;entryY=0;entryDx=0;entryDy=0;" parent="1" source="NZPgqeMzNN7oQQNKcr5g-2" target="NZPgqeMzNN7oQQNKcr5g-3" edge="1">
          <mxGeometry relative="1" as="geometry" />
        </mxCell>
        <mxCell id="NZPgqeMzNN7oQQNKcr5g-2" value="&lt;span style=&quot;background-color: light-dark(#ffffff, var(--ge-dark-color, #121212));&quot;&gt;&lt;br&gt;&lt;span style=&quot;color: rgb(0, 0, 0); font-family: Helvetica; font-size: 12px; font-style: normal; font-variant-ligatures: normal; font-variant-caps: normal; letter-spacing: normal; orphans: 2; text-align: center; text-indent: 0px; text-transform: none; widows: 2; word-spacing: 0px; -webkit-text-stroke-width: 0px; white-space: normal; text-decoration-thickness: initial; text-decoration-style: initial; text-decoration-color: initial; float: none; display: inline !important;&quot;&gt;Start movePlayer&lt;/span&gt;&lt;/span&gt;&lt;div style=&quot;forced-color-adjust: none; color: rgb(0, 0, 0); font-family: Helvetica; font-size: 12px; font-style: normal; font-variant-ligatures: normal; font-variant-caps: normal; letter-spacing: normal; orphans: 2; text-align: center; text-indent: 0px; text-transform: none; widows: 2; word-spacing: 0px; -webkit-text-stroke-width: 0px; white-space: normal; text-decoration-thickness: initial; text-decoration-style: initial; text-decoration-color: initial;&quot;&gt;&lt;span style=&quot;background-color: light-dark(#ffffff, var(--ge-dark-color, #121212));&quot;&gt;(currentPlayer, numberOfSpaces)&lt;/span&gt;&lt;/div&gt;&lt;span style=&quot;background-color: light-dark(#ffffff, var(--ge-dark-color, #121212));&quot;&gt;&lt;br&gt;&lt;/span&gt;" style="rounded=1;whiteSpace=wrap;html=1;" parent="1" vertex="1">
          <mxGeometry x="827" y="230" width="120" height="60" as="geometry" />
        </mxCell>
        <mxCell id="NZPgqeMzNN7oQQNKcr5g-6" style="edgeStyle=orthogonalEdgeStyle;rounded=0;orthogonalLoop=1;jettySize=auto;html=1;entryX=0.5;entryY=0;entryDx=0;entryDy=0;" parent="1" source="NZPgqeMzNN7oQQNKcr5g-3" target="NZPgqeMzNN7oQQNKcr5g-5" edge="1">
          <mxGeometry relative="1" as="geometry" />
        </mxCell>
        <mxCell id="NZPgqeMzNN7oQQNKcr5g-3" value="&lt;div&gt;passedStart = false;&lt;/div&gt;int position = currentPlayer.getPosition();" style="rounded=0;whiteSpace=wrap;html=1;" parent="1" vertex="1">
          <mxGeometry x="810.5" y="340" width="153" height="60" as="geometry" />
        </mxCell>
        <mxCell id="NZPgqeMzNN7oQQNKcr5g-9" style="edgeStyle=orthogonalEdgeStyle;rounded=0;orthogonalLoop=1;jettySize=auto;html=1;exitX=0.5;exitY=1;exitDx=0;exitDy=0;entryX=0.5;entryY=0;entryDx=0;entryDy=0;" parent="1" source="NZPgqeMzNN7oQQNKcr5g-5" target="NZPgqeMzNN7oQQNKcr5g-8" edge="1">
          <mxGeometry relative="1" as="geometry" />
        </mxCell>
        <mxCell id="NZPgqeMzNN7oQQNKcr5g-5" value="str playersOnSpace = board[position,0];&lt;br&gt;&lt;div&gt;Find currentPlayer.playerNumber in playersOnSpace&lt;/div&gt;&lt;div&gt;then delete the player number from the string and if its position in the string is &amp;gt;0 then delete the comma before it as well&lt;/div&gt;" style="rounded=0;whiteSpace=wrap;html=1;" parent="1" vertex="1">
          <mxGeometry x="741" y="437" width="292" height="92" as="geometry" />
        </mxCell>
        <mxCell id="NZPgqeMzNN7oQQNKcr5g-7" value="board[0,0] = &quot;1,2,3,4&quot;" style="rounded=0;whiteSpace=wrap;html=1;" parent="1" vertex="1">
          <mxGeometry x="140" y="180" width="120" height="60" as="geometry" />
        </mxCell>
        <mxCell id="fGPfQ3HshrvQKYn7lbCG-21" style="edgeStyle=orthogonalEdgeStyle;rounded=0;orthogonalLoop=1;jettySize=auto;html=1;entryX=0;entryY=0.5;entryDx=0;entryDy=0;" edge="1" parent="1" source="NZPgqeMzNN7oQQNKcr5g-8" target="fGPfQ3HshrvQKYn7lbCG-18">
          <mxGeometry relative="1" as="geometry" />
        </mxCell>
        <mxCell id="NZPgqeMzNN7oQQNKcr5g-8" value="position += numberOfSpaces" style="rounded=0;whiteSpace=wrap;html=1;" parent="1" vertex="1">
          <mxGeometry x="767" y="575.5" width="240" height="35" as="geometry" />
        </mxCell>
        <mxCell id="fGPfQ3HshrvQKYn7lbCG-3" style="edgeStyle=orthogonalEdgeStyle;rounded=0;orthogonalLoop=1;jettySize=auto;html=1;entryX=0.5;entryY=0;entryDx=0;entryDy=0;" edge="1" parent="1" source="NZPgqeMzNN7oQQNKcr5g-10" target="fGPfQ3HshrvQKYn7lbCG-2">
          <mxGeometry relative="1" as="geometry" />
        </mxCell>
        <mxCell id="NZPgqeMzNN7oQQNKcr5g-10" value="playersOnSpace = board[position,0];&lt;div&gt;length = playersOnSpace.length()&lt;/div&gt;" style="rounded=0;whiteSpace=wrap;html=1;" parent="1" vertex="1">
          <mxGeometry x="783" y="698" width="208" height="50" as="geometry" />
        </mxCell>
        <mxCell id="fGPfQ3HshrvQKYn7lbCG-6" style="edgeStyle=orthogonalEdgeStyle;rounded=0;orthogonalLoop=1;jettySize=auto;html=1;exitX=1;exitY=0.5;exitDx=0;exitDy=0;entryX=0;entryY=0.5;entryDx=0;entryDy=0;" edge="1" parent="1" source="fGPfQ3HshrvQKYn7lbCG-2" target="fGPfQ3HshrvQKYn7lbCG-4">
          <mxGeometry relative="1" as="geometry" />
        </mxCell>
        <mxCell id="fGPfQ3HshrvQKYn7lbCG-7" style="edgeStyle=orthogonalEdgeStyle;rounded=0;orthogonalLoop=1;jettySize=auto;html=1;exitX=0.5;exitY=1;exitDx=0;exitDy=0;entryX=0.5;entryY=0;entryDx=0;entryDy=0;" edge="1" parent="1" source="fGPfQ3HshrvQKYn7lbCG-2" target="fGPfQ3HshrvQKYn7lbCG-5">
          <mxGeometry relative="1" as="geometry" />
        </mxCell>
        <mxCell id="fGPfQ3HshrvQKYn7lbCG-2" value="If length &amp;gt; 0" style="rhombus;whiteSpace=wrap;html=1;" vertex="1" parent="1">
          <mxGeometry x="840.5" y="775" width="93" height="90" as="geometry" />
        </mxCell>
        <mxCell id="fGPfQ3HshrvQKYn7lbCG-13" style="edgeStyle=orthogonalEdgeStyle;rounded=0;orthogonalLoop=1;jettySize=auto;html=1;entryX=0.5;entryY=0;entryDx=0;entryDy=0;" edge="1" parent="1" source="fGPfQ3HshrvQKYn7lbCG-4" target="fGPfQ3HshrvQKYn7lbCG-10">
          <mxGeometry relative="1" as="geometry" />
        </mxCell>
        <mxCell id="fGPfQ3HshrvQKYn7lbCG-4" value="playersOnSpace.concat(&quot;,&quot; + currentPlayer.playerNumber)&lt;div&gt;//Adds a , and the player number to the end of playersOnSpace&lt;/div&gt;" style="rounded=0;whiteSpace=wrap;html=1;" vertex="1" parent="1">
          <mxGeometry x="1071.5" y="780" width="337" height="80" as="geometry" />
        </mxCell>
        <mxCell id="fGPfQ3HshrvQKYn7lbCG-11" style="edgeStyle=orthogonalEdgeStyle;rounded=0;orthogonalLoop=1;jettySize=auto;html=1;entryX=0;entryY=0.5;entryDx=0;entryDy=0;" edge="1" parent="1" source="fGPfQ3HshrvQKYn7lbCG-5" target="fGPfQ3HshrvQKYn7lbCG-10">
          <mxGeometry relative="1" as="geometry" />
        </mxCell>
        <mxCell id="fGPfQ3HshrvQKYn7lbCG-5" value="playersOnSpace = str(currentPlayer.playerNumber)" style="rounded=0;whiteSpace=wrap;html=1;" vertex="1" parent="1">
          <mxGeometry x="790.5" y="920" width="193" height="60" as="geometry" />
        </mxCell>
        <mxCell id="fGPfQ3HshrvQKYn7lbCG-8" value="No" style="text;html=1;align=center;verticalAlign=middle;resizable=0;points=[];autosize=1;strokeColor=none;fillColor=none;" vertex="1" parent="1">
          <mxGeometry x="830" y="865" width="40" height="30" as="geometry" />
        </mxCell>
        <mxCell id="fGPfQ3HshrvQKYn7lbCG-9" value="Yes" style="text;html=1;align=center;verticalAlign=middle;resizable=0;points=[];autosize=1;strokeColor=none;fillColor=none;" vertex="1" parent="1">
          <mxGeometry x="993" y="780" width="40" height="30" as="geometry" />
        </mxCell>
        <mxCell id="fGPfQ3HshrvQKYn7lbCG-17" style="edgeStyle=orthogonalEdgeStyle;rounded=0;orthogonalLoop=1;jettySize=auto;html=1;" edge="1" parent="1">
          <mxGeometry relative="1" as="geometry">
            <mxPoint x="1371" y="970.5" as="sourcePoint" />
            <mxPoint x="1500" y="610.5" as="targetPoint" />
            <Array as="points">
              <mxPoint x="1500" y="971" />
            </Array>
          </mxGeometry>
        </mxCell>
        <mxCell id="fGPfQ3HshrvQKYn7lbCG-10" value="board[position,0] = playersOnSpace&lt;div&gt;//updates the new board position to include the new player&lt;/div&gt;" style="rounded=0;whiteSpace=wrap;html=1;" vertex="1" parent="1">
          <mxGeometry x="1110" y="920" width="260" height="60" as="geometry" />
        </mxCell>
        <mxCell id="fGPfQ3HshrvQKYn7lbCG-31" style="edgeStyle=orthogonalEdgeStyle;rounded=0;orthogonalLoop=1;jettySize=auto;html=1;exitX=1;exitY=0.5;exitDx=0;exitDy=0;entryX=0;entryY=0.5;entryDx=0;entryDy=0;" edge="1" parent="1" source="fGPfQ3HshrvQKYn7lbCG-16" target="fGPfQ3HshrvQKYn7lbCG-29">
          <mxGeometry relative="1" as="geometry" />
        </mxCell>
        <mxCell id="fGPfQ3HshrvQKYn7lbCG-58" style="edgeStyle=orthogonalEdgeStyle;rounded=0;orthogonalLoop=1;jettySize=auto;html=1;exitX=0.5;exitY=0;exitDx=0;exitDy=0;entryX=0.5;entryY=1;entryDx=0;entryDy=0;" edge="1" parent="1" source="fGPfQ3HshrvQKYn7lbCG-16" target="fGPfQ3HshrvQKYn7lbCG-55">
          <mxGeometry relative="1" as="geometry" />
        </mxCell>
        <mxCell id="fGPfQ3HshrvQKYn7lbCG-16" value="If board[position,1] == &quot;Animal&quot;" style="rhombus;whiteSpace=wrap;html=1;" vertex="1" parent="1">
          <mxGeometry x="1410" y="456.58" width="180" height="153.92" as="geometry" />
        </mxCell>
        <mxCell id="fGPfQ3HshrvQKYn7lbCG-19" style="edgeStyle=orthogonalEdgeStyle;rounded=0;orthogonalLoop=1;jettySize=auto;html=1;endArrow=none;startFill=0;" edge="1" parent="1">
          <mxGeometry relative="1" as="geometry">
            <mxPoint x="1166" y="620" as="sourcePoint" />
            <mxPoint x="1160" y="720" as="targetPoint" />
            <Array as="points">
              <mxPoint x="1166" y="680" />
              <mxPoint x="1166" y="680" />
            </Array>
          </mxGeometry>
        </mxCell>
        <mxCell id="fGPfQ3HshrvQKYn7lbCG-23" style="edgeStyle=orthogonalEdgeStyle;rounded=0;orthogonalLoop=1;jettySize=auto;html=1;exitX=1;exitY=0.5;exitDx=0;exitDy=0;entryX=0;entryY=0.5;entryDx=0;entryDy=0;" edge="1" parent="1" source="fGPfQ3HshrvQKYn7lbCG-18" target="fGPfQ3HshrvQKYn7lbCG-22">
          <mxGeometry relative="1" as="geometry" />
        </mxCell>
        <mxCell id="fGPfQ3HshrvQKYn7lbCG-18" value="If position &amp;gt; 25" style="rhombus;whiteSpace=wrap;html=1;" vertex="1" parent="1">
          <mxGeometry x="1111" y="541.5" width="109" height="103" as="geometry" />
        </mxCell>
        <mxCell id="fGPfQ3HshrvQKYn7lbCG-20" value="No" style="text;html=1;align=center;verticalAlign=middle;resizable=0;points=[];autosize=1;strokeColor=none;fillColor=none;" vertex="1" parent="1">
          <mxGeometry x="1111" y="665" width="40" height="30" as="geometry" />
        </mxCell>
        <mxCell id="fGPfQ3HshrvQKYn7lbCG-24" style="edgeStyle=orthogonalEdgeStyle;rounded=0;orthogonalLoop=1;jettySize=auto;html=1;exitX=0.5;exitY=1;exitDx=0;exitDy=0;" edge="1" parent="1" source="fGPfQ3HshrvQKYn7lbCG-22">
          <mxGeometry relative="1" as="geometry">
            <mxPoint x="990" y="720" as="targetPoint" />
            <Array as="points">
              <mxPoint x="1349" y="720" />
              <mxPoint x="991" y="720" />
            </Array>
          </mxGeometry>
        </mxCell>
        <mxCell id="fGPfQ3HshrvQKYn7lbCG-22" value="position -= 26;&lt;div&gt;passed start = true;&lt;/div&gt;" style="rounded=0;whiteSpace=wrap;html=1;" vertex="1" parent="1">
          <mxGeometry x="1288.5" y="563" width="120" height="60" as="geometry" />
        </mxCell>
        <mxCell id="fGPfQ3HshrvQKYn7lbCG-25" value="Yes" style="text;html=1;align=center;verticalAlign=middle;resizable=0;points=[];autosize=1;strokeColor=none;fillColor=none;" vertex="1" parent="1">
          <mxGeometry x="1230" y="555" width="40" height="30" as="geometry" />
        </mxCell>
        <mxCell id="fGPfQ3HshrvQKYn7lbCG-28" value="Yes" style="text;html=1;align=center;verticalAlign=middle;resizable=0;points=[];autosize=1;strokeColor=none;fillColor=none;" vertex="1" parent="1">
          <mxGeometry x="1450" y="400" width="40" height="30" as="geometry" />
        </mxCell>
        <mxCell id="fGPfQ3HshrvQKYn7lbCG-32" style="edgeStyle=orthogonalEdgeStyle;rounded=0;orthogonalLoop=1;jettySize=auto;html=1;exitX=0.5;exitY=1;exitDx=0;exitDy=0;entryX=0.5;entryY=0;entryDx=0;entryDy=0;" edge="1" parent="1" source="fGPfQ3HshrvQKYn7lbCG-29" target="fGPfQ3HshrvQKYn7lbCG-30">
          <mxGeometry relative="1" as="geometry" />
        </mxCell>
        <mxCell id="fGPfQ3HshrvQKYn7lbCG-35" style="edgeStyle=orthogonalEdgeStyle;rounded=0;orthogonalLoop=1;jettySize=auto;html=1;exitX=0.5;exitY=0;exitDx=0;exitDy=0;entryX=0.5;entryY=1;entryDx=0;entryDy=0;" edge="1" parent="1" source="fGPfQ3HshrvQKYn7lbCG-29" target="fGPfQ3HshrvQKYn7lbCG-34">
          <mxGeometry relative="1" as="geometry" />
        </mxCell>
        <mxCell id="fGPfQ3HshrvQKYn7lbCG-29" value="If board[position,2]&lt;div&gt;== &quot;Start&quot;&lt;/div&gt;" style="rhombus;whiteSpace=wrap;html=1;" vertex="1" parent="1">
          <mxGeometry x="1715" y="473.27" width="130" height="120.54" as="geometry" />
        </mxCell>
        <mxCell id="fGPfQ3HshrvQKYn7lbCG-68" style="edgeStyle=orthogonalEdgeStyle;rounded=0;orthogonalLoop=1;jettySize=auto;html=1;entryX=1;entryY=0.5;entryDx=0;entryDy=0;exitX=1;exitY=0.5;exitDx=0;exitDy=0;" edge="1" parent="1" source="fGPfQ3HshrvQKYn7lbCG-30" target="fGPfQ3HshrvQKYn7lbCG-63">
          <mxGeometry relative="1" as="geometry">
            <Array as="points">
              <mxPoint x="2150" y="680" />
              <mxPoint x="2150" y="20" />
            </Array>
          </mxGeometry>
        </mxCell>
        <mxCell id="fGPfQ3HshrvQKYn7lbCG-30" value="currentPlayer.addMoney(1000);" style="rounded=0;whiteSpace=wrap;html=1;" vertex="1" parent="1">
          <mxGeometry x="1680" y="650" width="200" height="60" as="geometry" />
        </mxCell>
        <mxCell id="fGPfQ3HshrvQKYn7lbCG-33" value="Yes" style="text;html=1;align=center;verticalAlign=middle;resizable=0;points=[];autosize=1;strokeColor=none;fillColor=none;" vertex="1" parent="1">
          <mxGeometry x="1790" y="598" width="40" height="30" as="geometry" />
        </mxCell>
        <mxCell id="fGPfQ3HshrvQKYn7lbCG-43" style="edgeStyle=orthogonalEdgeStyle;rounded=0;orthogonalLoop=1;jettySize=auto;html=1;entryX=0.5;entryY=1;entryDx=0;entryDy=0;" edge="1" parent="1" source="fGPfQ3HshrvQKYn7lbCG-34" target="fGPfQ3HshrvQKYn7lbCG-42">
          <mxGeometry relative="1" as="geometry" />
        </mxCell>
        <mxCell id="fGPfQ3HshrvQKYn7lbCG-34" value="currentPlayer.missNextTurn();" style="rounded=0;whiteSpace=wrap;html=1;" vertex="1" parent="1">
          <mxGeometry x="1690" y="350" width="180" height="60" as="geometry" />
        </mxCell>
        <mxCell id="fGPfQ3HshrvQKYn7lbCG-36" value="No (therefore it must be miss a turn)" style="text;html=1;align=center;verticalAlign=middle;resizable=0;points=[];autosize=1;strokeColor=none;fillColor=none;" vertex="1" parent="1">
          <mxGeometry x="1790" y="435.92" width="220" height="30" as="geometry" />
        </mxCell>
        <mxCell id="fGPfQ3HshrvQKYn7lbCG-41" style="edgeStyle=orthogonalEdgeStyle;rounded=0;orthogonalLoop=1;jettySize=auto;html=1;exitX=0.5;exitY=0;exitDx=0;exitDy=0;entryX=0.5;entryY=1;entryDx=0;entryDy=0;" edge="1" parent="1" source="fGPfQ3HshrvQKYn7lbCG-39" target="fGPfQ3HshrvQKYn7lbCG-40">
          <mxGeometry relative="1" as="geometry" />
        </mxCell>
        <mxCell id="fGPfQ3HshrvQKYn7lbCG-39" value="animalArray = game.getAnimals()&lt;div&gt;then for each animal in the array compare its name with animal.getName with the name stored in the current board position until you find the matching animal, then&lt;/div&gt;&lt;div&gt;currentAnimal = animalArray[correctIndex]&lt;/div&gt;" style="rounded=0;whiteSpace=wrap;html=1;" vertex="1" parent="1">
          <mxGeometry x="1380" y="110" width="240" height="100" as="geometry" />
        </mxCell>
        <mxCell id="fGPfQ3HshrvQKYn7lbCG-64" style="edgeStyle=orthogonalEdgeStyle;rounded=0;orthogonalLoop=1;jettySize=auto;html=1;exitX=1;exitY=0.5;exitDx=0;exitDy=0;" edge="1" parent="1" source="fGPfQ3HshrvQKYn7lbCG-40" target="fGPfQ3HshrvQKYn7lbCG-63">
          <mxGeometry relative="1" as="geometry" />
        </mxCell>
        <mxCell id="fGPfQ3HshrvQKYn7lbCG-40" value="currentAnimal.landed(currentPlayer)&lt;div&gt;//This calls a procedure in the animal object which check if the animal is owned and either lets the player purchase it or does the stop cost or does nothing&lt;/div&gt;" style="shape=process;whiteSpace=wrap;html=1;backgroundOutline=1;" vertex="1" parent="1">
          <mxGeometry x="1365" y="-30" width="270" height="100" as="geometry" />
        </mxCell>
        <mxCell id="fGPfQ3HshrvQKYn7lbCG-50" style="edgeStyle=orthogonalEdgeStyle;rounded=0;orthogonalLoop=1;jettySize=auto;html=1;exitX=1;exitY=0.5;exitDx=0;exitDy=0;" edge="1" parent="1" source="fGPfQ3HshrvQKYn7lbCG-42" target="fGPfQ3HshrvQKYn7lbCG-49">
          <mxGeometry relative="1" as="geometry" />
        </mxCell>
        <mxCell id="fGPfQ3HshrvQKYn7lbCG-66" style="edgeStyle=orthogonalEdgeStyle;rounded=0;orthogonalLoop=1;jettySize=auto;html=1;exitX=0.5;exitY=0;exitDx=0;exitDy=0;endArrow=none;startFill=0;" edge="1" parent="1" source="fGPfQ3HshrvQKYn7lbCG-42">
          <mxGeometry relative="1" as="geometry">
            <mxPoint x="1880" y="120" as="targetPoint" />
            <Array as="points">
              <mxPoint x="1780" y="140" />
              <mxPoint x="1881" y="140" />
            </Array>
          </mxGeometry>
        </mxCell>
        <mxCell id="fGPfQ3HshrvQKYn7lbCG-42" value="If passedStart == true;" style="rhombus;whiteSpace=wrap;html=1;" vertex="1" parent="1">
          <mxGeometry x="1715" y="170" width="130" height="130" as="geometry" />
        </mxCell>
        <mxCell id="fGPfQ3HshrvQKYn7lbCG-65" style="edgeStyle=orthogonalEdgeStyle;rounded=0;orthogonalLoop=1;jettySize=auto;html=1;exitX=0.5;exitY=0;exitDx=0;exitDy=0;entryX=0.5;entryY=1;entryDx=0;entryDy=0;" edge="1" parent="1" source="fGPfQ3HshrvQKYn7lbCG-49" target="fGPfQ3HshrvQKYn7lbCG-63">
          <mxGeometry relative="1" as="geometry">
            <Array as="points">
              <mxPoint x="2010" y="140" />
              <mxPoint x="1880" y="140" />
            </Array>
          </mxGeometry>
        </mxCell>
        <mxCell id="fGPfQ3HshrvQKYn7lbCG-49" value="currentPlayer.addMoney(500)" style="rounded=0;whiteSpace=wrap;html=1;" vertex="1" parent="1">
          <mxGeometry x="1920" y="205" width="180" height="60" as="geometry" />
        </mxCell>
        <mxCell id="fGPfQ3HshrvQKYn7lbCG-51" value="Yes" style="text;html=1;align=center;verticalAlign=middle;resizable=0;points=[];autosize=1;strokeColor=none;fillColor=none;" vertex="1" parent="1">
          <mxGeometry x="1850" y="198" width="40" height="30" as="geometry" />
        </mxCell>
        <mxCell id="fGPfQ3HshrvQKYn7lbCG-54" style="edgeStyle=orthogonalEdgeStyle;rounded=0;orthogonalLoop=1;jettySize=auto;html=1;exitX=0;exitY=0.5;exitDx=0;exitDy=0;" edge="1" parent="1" source="fGPfQ3HshrvQKYn7lbCG-55" target="fGPfQ3HshrvQKYn7lbCG-56">
          <mxGeometry relative="1" as="geometry" />
        </mxCell>
        <mxCell id="fGPfQ3HshrvQKYn7lbCG-59" style="edgeStyle=orthogonalEdgeStyle;rounded=0;orthogonalLoop=1;jettySize=auto;html=1;exitX=0.5;exitY=0;exitDx=0;exitDy=0;entryX=0.5;entryY=1;entryDx=0;entryDy=0;" edge="1" parent="1" source="fGPfQ3HshrvQKYn7lbCG-55" target="fGPfQ3HshrvQKYn7lbCG-39">
          <mxGeometry relative="1" as="geometry" />
        </mxCell>
        <mxCell id="fGPfQ3HshrvQKYn7lbCG-55" value="If passedStart == true;" style="rhombus;whiteSpace=wrap;html=1;" vertex="1" parent="1">
          <mxGeometry x="1435" y="250" width="130" height="130" as="geometry" />
        </mxCell>
        <mxCell id="fGPfQ3HshrvQKYn7lbCG-61" style="edgeStyle=orthogonalEdgeStyle;rounded=0;orthogonalLoop=1;jettySize=auto;html=1;exitX=0.5;exitY=0;exitDx=0;exitDy=0;entryX=0;entryY=0.5;entryDx=0;entryDy=0;" edge="1" parent="1" source="fGPfQ3HshrvQKYn7lbCG-56" target="fGPfQ3HshrvQKYn7lbCG-39">
          <mxGeometry relative="1" as="geometry" />
        </mxCell>
        <mxCell id="fGPfQ3HshrvQKYn7lbCG-56" value="currentPlayer.addMoney(500)" style="rounded=0;whiteSpace=wrap;html=1;" vertex="1" parent="1">
          <mxGeometry x="1150" y="285" width="180" height="60" as="geometry" />
        </mxCell>
        <mxCell id="fGPfQ3HshrvQKYn7lbCG-57" value="Yes" style="text;html=1;align=center;verticalAlign=middle;resizable=0;points=[];autosize=1;strokeColor=none;fillColor=none;" vertex="1" parent="1">
          <mxGeometry x="1368.5" y="265" width="40" height="30" as="geometry" />
        </mxCell>
        <mxCell id="fGPfQ3HshrvQKYn7lbCG-60" value="No" style="text;html=1;align=center;verticalAlign=middle;resizable=0;points=[];autosize=1;strokeColor=none;fillColor=none;" vertex="1" parent="1">
          <mxGeometry x="1510" y="218" width="40" height="30" as="geometry" />
        </mxCell>
        <mxCell id="fGPfQ3HshrvQKYn7lbCG-63" value="Stop" style="rounded=1;whiteSpace=wrap;html=1;" vertex="1" parent="1">
          <mxGeometry x="1820" y="-10" width="120" height="60" as="geometry" />
        </mxCell>
        <mxCell id="fGPfQ3HshrvQKYn7lbCG-67" value="No" style="text;html=1;align=center;verticalAlign=middle;resizable=0;points=[];autosize=1;strokeColor=none;fillColor=none;" vertex="1" parent="1">
          <mxGeometry x="1790" y="105" width="40" height="30" as="geometry" />
        </mxCell>
      </root>
    </mxGraphModel>
  </diagram>
</mxfile>
